<svg xmlns="http://www.w3.org/2000/svg" xmlns:xlink="http://www.w3.org/1999/xlink" preserveAspectRatio="xMidYMid meet" version="1.0" viewBox="262.2 933.0 1600.0 129.5" zoomAndPan="magnify" style="fill: rgb(245, 241, 220);" original_string_length="4950"><g id="__id319_ssmholxv49"><path d="M1456.38,1052.33c-9.75-0.1-19.7-0.97-30.42-2.64l1.23-7.9c10.34,1.61,19.91,2.44,29.28,2.54L1456.38,1052.33z M505.1,1052.3l-0.16-8c9.35-0.19,18.93-1.1,29.27-2.78l1.29,7.9C524.78,1051.16,514.84,1052.1,505.1,1052.3z M970.54,1052.1 c-9.67-0.48-19.58-1.67-30.28-3.65l1.45-7.87c10.35,1.91,19.91,3.06,29.23,3.52L970.54,1052.1z M990.95,1052.01l-0.47-7.99 c9.3-0.55,18.86-1.77,29.21-3.75l1.5,7.86C1010.5,1050.17,1000.6,1051.44,990.95,1052.01z M484.71,1051.6 c-9.58-0.83-19.43-2.32-30.12-4.57l1.65-7.83c10.37,2.18,19.91,3.63,29.16,4.43L484.71,1051.6z M1476.76,1051.44l-0.75-7.96 c9.24-0.87,18.77-2.39,29.14-4.63l1.69,7.82C1496.15,1048.98,1486.31,1050.54,1476.76,1051.44z M1406.04,1045.83 c-8.96-2.05-18.53-4.62-29.24-7.85l2.31-7.66c10.53,3.18,19.92,5.7,28.71,7.71L1406.04,1045.83z M555.37,1045.45l-1.82-7.79 c8.75-2.04,18.13-4.6,28.68-7.82l2.33,7.65C573.84,1040.76,564.29,1043.36,555.37,1045.45z M920.46,1044.13 c-8.78-2.2-18.3-4.91-29.08-8.29l2.4-7.63c10.63,3.34,20,6.01,28.63,8.17L920.46,1044.13z M1040.93,1043.71l-1.97-7.75 c8.58-2.19,17.94-4.89,28.6-8.26l2.41,7.63C1059.16,1038.74,1049.66,1041.49,1040.93,1043.71z M434.94,1042.29 c-8.69-2.34-17.88-5.09-28.94-8.66l2.46-7.61c10.93,3.53,20,6.25,28.55,8.55L434.94,1042.29z M1526.45,1041.84l-2.11-7.72 c8.51-2.33,17.58-5.07,28.53-8.63l2.47,7.61C1544.26,1036.71,1535.08,1039.49,1526.45,1041.84z M1357.63,1031.9 c-6.75-2.22-13.6-4.54-20.22-6.78c-2.75-0.93-5.5-1.86-8.25-2.79l2.55-7.58c2.75,0.93,5.51,1.86,8.26,2.79 c6.61,2.24,13.44,4.55,20.15,6.76L1357.63,1031.9z M603.7,1031.38l-2.51-7.6c6.18-2.04,12.47-4.17,18.55-6.23 c3.29-1.11,6.58-2.23,9.87-3.33l2.55,7.58c-3.29,1.1-6.57,2.22-9.85,3.33C616.21,1027.19,609.91,1029.32,603.7,1031.38z M872.28,1029.61c-4.43-1.48-8.87-2.98-13.3-4.49c-5.04-1.71-10.09-3.42-15.13-5.1l2.53-7.59c5.06,1.68,10.11,3.4,15.17,5.11 c4.42,1.5,8.85,3,13.27,4.48L872.28,1029.61z M1089.04,1029.08l-2.54-7.58c3.88-1.3,7.77-2.62,11.65-3.93 c5.6-1.9,11.2-3.79,16.8-5.65l2.52,7.59c-5.58,1.85-11.17,3.74-16.75,5.63C1096.83,1026.46,1092.93,1027.78,1089.04,1029.08z M386.96,1027.31l-6.51-2.2c-7.18-2.43-14.61-4.95-21.91-7.33l2.49-7.6c7.33,2.4,14.78,4.92,21.99,7.36l6.5,2.2L386.96,1027.31z M1574.37,1026.77l-2.56-7.58l4.83-1.64c7.75-2.62,15.77-5.34,23.67-7.91l2.48,7.61c-7.85,2.55-15.84,5.26-23.58,7.88 L1574.37,1026.77z M1310.22,1016.07c-10.88-3.49-19.96-6.18-28.57-8.45l2.04-7.73c8.74,2.31,17.95,5.03,28.97,8.57L1310.22,1016.07z M651.12,1015.56l-2.43-7.62c10.84-3.46,20.32-6.23,29.01-8.49l2.01,7.74C671.17,1009.41,661.81,1012.15,651.12,1015.56z M824.89,1013.9c-10.59-3.29-19.96-5.93-28.64-8.05l1.9-7.77c8.84,2.16,18.36,4.84,29.12,8.18L824.89,1013.9z M1136.44,1013.41 l-2.36-7.65c10.74-3.31,20.28-5.96,29.16-8.08l1.86,7.78C1156.4,1007.55,1147.02,1010.15,1136.44,1013.41z M339.56,1011.81 c-10.51-3.14-19.91-5.62-28.72-7.58l1.74-7.81c9,2,18.58,4.53,29.28,7.72L339.56,1011.81z M1621.79,1011.33l-2.27-7.67 c10.69-3.16,20.28-5.65,29.32-7.61l1.7,7.82C1641.69,1005.79,1632.29,1008.23,1621.79,1011.33z M1262.43,1003.09 c-10.37-2.11-19.91-3.48-29.18-4.2l0.61-7.98c9.6,0.74,19.47,2.16,30.16,4.33L1262.43,1003.09z M698.96,1002.76l-1.55-7.85 c10.7-2.12,20.58-3.46,30.2-4.12l0.55,7.98C718.88,999.41,709.33,1000.71,698.96,1002.76z M776.94,1001.75 c-10.35-1.83-19.91-2.9-29.24-3.27l0.32-7.99c9.7,0.38,19.61,1.49,30.32,3.39L776.94,1001.75z M1184.45,1001.47l-1.34-7.89 c10.72-1.83,20.65-2.86,30.36-3.15l0.24,8C1204.37,998.71,1194.8,999.7,1184.45,1001.47z M291.47,1000.61 c-10.33-1.53-19.91-2.27-29.29-2.27v-8c9.77,0,19.73,0.77,30.46,2.36L291.47,1000.61z M1669.94,1000.37l-1.12-7.92 c10.08-1.42,19.48-2.11,28.72-2.11c0.01,0,0.01,0,0.02,0l0,8c-0.01,0-0.01,0-0.02,0C1688.68,998.34,1679.65,999,1669.94,1000.37z" style="fill: inherit;"/></g><g id="__id320_ssmholxv49"><path d="M1772.69,1062.17l10.67,0.34l15.14-21.32l5.96,0.19c2.01,0.06,3.69-1.51,3.75-3.52c0.06-2.01-1.51-3.69-3.52-3.75 l-1.13-0.04l4.91-6.91l5.29,0.17c2.01,0.06,3.69-1.51,3.75-3.52c0.06-2.01-1.51-3.69-3.52-3.75l-0.46-0.01l7.74-10.89l19.75,1.54 c6.25,0.49,20.81-4.05,21.01-10.32l0,0c0.2-6.26-14.04-11.72-20.31-11.63l-20.05,0.28l-7.03-11.38l0.71,0.02 c2.01,0.06,3.69-1.51,3.75-3.52c0.06-2.01-1.51-3.69-3.52-3.75l-5.54-0.18l-4.46-7.21l1.38,0.04c2.01,0.06,3.69-1.51,3.75-3.52l0,0 c0.06-2.01-1.51-3.69-3.52-3.75l-6.21-0.2l-13.75-22.24l-10.67-0.34l14.53,56.45l-49.62,0.69l-12.4-20.05 c-0.48-0.78-1.31-1.26-2.23-1.29c-1.81-0.06-3.17,1.64-2.72,3.39l5.91,22.95c0.11,0.43,0.27,0.84,0.46,1.23 c-0.22,0.37-0.4,0.77-0.53,1.2l-7.35,22.53c-0.56,1.72,0.69,3.5,2.5,3.56c0.91,0.03,1.78-0.4,2.3-1.14l13.72-19.32 c0.06-0.09,0.12-0.17,0.18-0.26l49.48,3.85L1772.69,1062.17z" style="fill: inherit;"/></g></svg>